<svg width="172" height="78" viewBox="0 0 172 78" fill="none" xmlns="http://www.w3.org/2000/svg">
<path d="M6.72 62V17.2H11.968L32.064 51.056H29.248L49.088 17.2H54.336L54.4 62H48.256L48.192 26.864H49.664L32 56.56H29.056L11.264 26.864H12.864V62H6.72ZM67.845 62V17.2H87.941C93.1037 17.2 97.0717 18.2453 99.845 20.336C102.618 22.384 104.005 25.2 104.005 28.784C104.005 31.216 103.45 33.264 102.341 34.928C101.274 36.592 99.8237 37.872 97.989 38.768C96.1543 39.664 94.1703 40.112 92.037 40.112L93.189 38.192C95.749 38.192 98.0103 38.64 99.973 39.536C101.936 40.432 103.493 41.7547 104.645 43.504C105.797 45.2107 106.373 47.344 106.373 49.904C106.373 53.744 104.922 56.7307 102.021 58.864C99.1623 60.9547 94.8957 62 89.221 62H67.845ZM74.245 56.816H88.965C92.5063 56.816 95.2157 56.2187 97.093 55.024C98.9703 53.8293 99.909 51.952 99.909 49.392C99.909 46.7893 98.9703 44.8907 97.093 43.696C95.2157 42.5013 92.5063 41.904 88.965 41.904H73.669V36.72H87.365C90.6077 36.72 93.125 36.1227 94.917 34.928C96.709 33.7333 97.605 31.9413 97.605 29.552C97.605 27.1627 96.709 25.3707 94.917 24.176C93.125 22.9813 90.6077 22.384 87.365 22.384H74.245V56.816Z" fill="#A3A3A3"/>
<mask id="path-2-outside-1_1_6" maskUnits="userSpaceOnUse" x="53" y="27" width="119" height="26" fill="black">
<rect fill="white" x="53" y="27" width="119" height="26"/>
<path d="M70.016 28.6H75.2V51H70.016V28.6ZM59.84 51H54.656V28.6H59.84V51ZM70.4 41.816H59.456V37.432H70.4V41.816ZM91.3798 51.384C89.6091 51.384 87.9664 51.096 86.4518 50.52C84.9584 49.944 83.6571 49.1333 82.5477 48.088C81.4598 47.0427 80.6064 45.816 79.9878 44.408C79.3904 43 79.0918 41.464 79.0918 39.8C79.0918 38.136 79.3904 36.6 79.9878 35.192C80.6064 33.784 81.4704 32.5573 82.5798 31.512C83.6891 30.4667 84.9904 29.656 86.4838 29.08C87.9771 28.504 89.5984 28.216 91.3478 28.216C93.1184 28.216 94.7397 28.504 96.2118 29.08C97.7051 29.656 98.9958 30.4667 100.084 31.512C101.193 32.5573 102.057 33.784 102.676 35.192C103.294 36.5787 103.604 38.1147 103.604 39.8C103.604 41.464 103.294 43.0107 102.676 44.44C102.057 45.848 101.193 47.0747 100.084 48.12C98.9958 49.144 97.7051 49.944 96.2118 50.52C94.7397 51.096 93.1291 51.384 91.3798 51.384ZM91.3478 46.968C92.3504 46.968 93.2678 46.7973 94.0998 46.456C94.9531 46.1147 95.6998 45.624 96.3398 44.984C96.9798 44.344 97.4704 43.5867 97.8118 42.712C98.1744 41.8373 98.3558 40.8667 98.3558 39.8C98.3558 38.7333 98.1744 37.7627 97.8118 36.888C97.4704 36.0133 96.9798 35.256 96.3398 34.616C95.7211 33.976 94.9851 33.4853 94.1318 33.144C93.2784 32.8027 92.3504 32.632 91.3478 32.632C90.3451 32.632 89.4171 32.8027 88.5638 33.144C87.7318 33.4853 86.9958 33.976 86.3558 34.616C85.7158 35.256 85.2144 36.0133 84.8518 36.888C84.5104 37.7627 84.3398 38.7333 84.3398 39.8C84.3398 40.8453 84.5104 41.816 84.8518 42.712C85.2144 43.5867 85.7051 44.344 86.3238 44.984C86.9638 45.624 87.7104 46.1147 88.5638 46.456C89.4171 46.7973 90.3451 46.968 91.3478 46.968ZM117.452 51.384C114.273 51.384 111.788 50.4987 109.996 48.728C108.204 46.9573 107.308 44.4293 107.308 41.144V28.6H112.492V40.952C112.492 43.0853 112.929 44.6213 113.804 45.56C114.678 46.4987 115.905 46.968 117.484 46.968C119.062 46.968 120.289 46.4987 121.164 45.56C122.038 44.6213 122.476 43.0853 122.476 40.952V28.6H127.596V41.144C127.596 44.4293 126.7 46.9573 124.908 48.728C123.116 50.4987 120.63 51.384 117.452 51.384ZM140.079 51.384C138.287 51.384 136.569 51.1493 134.927 50.68C133.284 50.1893 131.961 49.56 130.959 48.792L132.719 44.888C133.679 45.5707 134.809 46.136 136.111 46.584C137.433 47.0107 138.767 47.224 140.111 47.224C141.135 47.224 141.956 47.128 142.575 46.936C143.215 46.7227 143.684 46.4347 143.983 46.072C144.281 45.7093 144.431 45.2933 144.431 44.824C144.431 44.2267 144.196 43.7573 143.727 43.416C143.257 43.0533 142.639 42.7653 141.871 42.552C141.103 42.3173 140.249 42.104 139.311 41.912C138.393 41.6987 137.465 41.4427 136.527 41.144C135.609 40.8453 134.767 40.4613 133.999 39.992C133.231 39.5227 132.601 38.904 132.111 38.136C131.641 37.368 131.407 36.3867 131.407 35.192C131.407 33.912 131.748 32.7493 132.431 31.704C133.135 30.6373 134.18 29.7947 135.567 29.176C136.975 28.536 138.735 28.216 140.847 28.216C142.255 28.216 143.641 28.3867 145.007 28.728C146.372 29.048 147.577 29.5387 148.623 30.2L147.023 34.136C145.977 33.5387 144.932 33.1013 143.887 32.824C142.841 32.5253 141.817 32.376 140.815 32.376C139.812 32.376 138.991 32.4933 138.351 32.728C137.711 32.9627 137.252 33.272 136.975 33.656C136.697 34.0187 136.559 34.4453 136.559 34.936C136.559 35.512 136.793 35.9813 137.263 36.344C137.732 36.6853 138.351 36.9627 139.119 37.176C139.887 37.3893 140.729 37.6027 141.647 37.816C142.585 38.0293 143.513 38.2747 144.431 38.552C145.369 38.8293 146.223 39.2027 146.991 39.672C147.759 40.1413 148.377 40.76 148.847 41.528C149.337 42.296 149.583 43.2667 149.583 44.44C149.583 45.6987 149.231 46.8507 148.527 47.896C147.823 48.9413 146.767 49.784 145.359 50.424C143.972 51.064 142.212 51.384 140.079 51.384ZM157.893 37.624H168.677V41.656H157.893V37.624ZM158.277 46.84H170.469V51H153.125V28.6H170.053V32.76H158.277V46.84Z"/>
</mask>
<path d="M70.016 28.6H75.2V51H70.016V28.6ZM59.84 51H54.656V28.6H59.84V51ZM70.4 41.816H59.456V37.432H70.4V41.816ZM91.3798 51.384C89.6091 51.384 87.9664 51.096 86.4518 50.52C84.9584 49.944 83.6571 49.1333 82.5477 48.088C81.4598 47.0427 80.6064 45.816 79.9878 44.408C79.3904 43 79.0918 41.464 79.0918 39.8C79.0918 38.136 79.3904 36.6 79.9878 35.192C80.6064 33.784 81.4704 32.5573 82.5798 31.512C83.6891 30.4667 84.9904 29.656 86.4838 29.08C87.9771 28.504 89.5984 28.216 91.3478 28.216C93.1184 28.216 94.7397 28.504 96.2118 29.08C97.7051 29.656 98.9958 30.4667 100.084 31.512C101.193 32.5573 102.057 33.784 102.676 35.192C103.294 36.5787 103.604 38.1147 103.604 39.8C103.604 41.464 103.294 43.0107 102.676 44.44C102.057 45.848 101.193 47.0747 100.084 48.12C98.9958 49.144 97.7051 49.944 96.2118 50.52C94.7397 51.096 93.1291 51.384 91.3798 51.384ZM91.3478 46.968C92.3504 46.968 93.2678 46.7973 94.0998 46.456C94.9531 46.1147 95.6998 45.624 96.3398 44.984C96.9798 44.344 97.4704 43.5867 97.8118 42.712C98.1744 41.8373 98.3558 40.8667 98.3558 39.8C98.3558 38.7333 98.1744 37.7627 97.8118 36.888C97.4704 36.0133 96.9798 35.256 96.3398 34.616C95.7211 33.976 94.9851 33.4853 94.1318 33.144C93.2784 32.8027 92.3504 32.632 91.3478 32.632C90.3451 32.632 89.4171 32.8027 88.5638 33.144C87.7318 33.4853 86.9958 33.976 86.3558 34.616C85.7158 35.256 85.2144 36.0133 84.8518 36.888C84.5104 37.7627 84.3398 38.7333 84.3398 39.8C84.3398 40.8453 84.5104 41.816 84.8518 42.712C85.2144 43.5867 85.7051 44.344 86.3238 44.984C86.9638 45.624 87.7104 46.1147 88.5638 46.456C89.4171 46.7973 90.3451 46.968 91.3478 46.968ZM117.452 51.384C114.273 51.384 111.788 50.4987 109.996 48.728C108.204 46.9573 107.308 44.4293 107.308 41.144V28.6H112.492V40.952C112.492 43.0853 112.929 44.6213 113.804 45.56C114.678 46.4987 115.905 46.968 117.484 46.968C119.062 46.968 120.289 46.4987 121.164 45.56C122.038 44.6213 122.476 43.0853 122.476 40.952V28.6H127.596V41.144C127.596 44.4293 126.7 46.9573 124.908 48.728C123.116 50.4987 120.63 51.384 117.452 51.384ZM140.079 51.384C138.287 51.384 136.569 51.1493 134.927 50.68C133.284 50.1893 131.961 49.56 130.959 48.792L132.719 44.888C133.679 45.5707 134.809 46.136 136.111 46.584C137.433 47.0107 138.767 47.224 140.111 47.224C141.135 47.224 141.956 47.128 142.575 46.936C143.215 46.7227 143.684 46.4347 143.983 46.072C144.281 45.7093 144.431 45.2933 144.431 44.824C144.431 44.2267 144.196 43.7573 143.727 43.416C143.257 43.0533 142.639 42.7653 141.871 42.552C141.103 42.3173 140.249 42.104 139.311 41.912C138.393 41.6987 137.465 41.4427 136.527 41.144C135.609 40.8453 134.767 40.4613 133.999 39.992C133.231 39.5227 132.601 38.904 132.111 38.136C131.641 37.368 131.407 36.3867 131.407 35.192C131.407 33.912 131.748 32.7493 132.431 31.704C133.135 30.6373 134.18 29.7947 135.567 29.176C136.975 28.536 138.735 28.216 140.847 28.216C142.255 28.216 143.641 28.3867 145.007 28.728C146.372 29.048 147.577 29.5387 148.623 30.2L147.023 34.136C145.977 33.5387 144.932 33.1013 143.887 32.824C142.841 32.5253 141.817 32.376 140.815 32.376C139.812 32.376 138.991 32.4933 138.351 32.728C137.711 32.9627 137.252 33.272 136.975 33.656C136.697 34.0187 136.559 34.4453 136.559 34.936C136.559 35.512 136.793 35.9813 137.263 36.344C137.732 36.6853 138.351 36.9627 139.119 37.176C139.887 37.3893 140.729 37.6027 141.647 37.816C142.585 38.0293 143.513 38.2747 144.431 38.552C145.369 38.8293 146.223 39.2027 146.991 39.672C147.759 40.1413 148.377 40.76 148.847 41.528C149.337 42.296 149.583 43.2667 149.583 44.44C149.583 45.6987 149.231 46.8507 148.527 47.896C147.823 48.9413 146.767 49.784 145.359 50.424C143.972 51.064 142.212 51.384 140.079 51.384ZM157.893 37.624H168.677V41.656H157.893V37.624ZM158.277 46.84H170.469V51H153.125V28.6H170.053V32.76H158.277V46.84Z" fill="white"/>
<path d="M70.016 28.6V27.6H69.016V28.6H70.016ZM75.2 28.6H76.2V27.6H75.2V28.6ZM75.2 51V52H76.2V51H75.2ZM70.016 51H69.016V52H70.016V51ZM59.84 51V52H60.84V51H59.84ZM54.656 51H53.656V52H54.656V51ZM54.656 28.6V27.6H53.656V28.6H54.656ZM59.84 28.6H60.84V27.6H59.84V28.6ZM70.4 41.816V42.816H71.4V41.816H70.4ZM59.456 41.816H58.456V42.816H59.456V41.816ZM59.456 37.432V36.432H58.456V37.432H59.456ZM70.4 37.432H71.4V36.432H70.4V37.432ZM70.016 29.6H75.2V27.6H70.016V29.6ZM74.2 28.6V51H76.2V28.6H74.2ZM75.2 50H70.016V52H75.2V50ZM71.016 51V28.6H69.016V51H71.016ZM59.84 50H54.656V52H59.84V50ZM55.656 51V28.6H53.656V51H55.656ZM54.656 29.6H59.84V27.6H54.656V29.6ZM58.84 28.6V51H60.84V28.6H58.84ZM70.4 40.816H59.456V42.816H70.4V40.816ZM60.456 41.816V37.432H58.456V41.816H60.456ZM59.456 38.432H70.4V36.432H59.456V38.432ZM69.4 37.432V41.816H71.4V37.432H69.4ZM86.4518 50.52L86.0919 51.453L86.0963 51.4547L86.4518 50.52ZM82.5478 48.088L81.8549 48.8091L81.8619 48.8158L82.5478 48.088ZM79.9878 44.408L79.0671 44.7986L79.0722 44.8103L79.9878 44.408ZM79.9878 35.192L79.0722 34.7897L79.0672 34.8014L79.9878 35.192ZM86.4837 29.08L86.1239 28.147L86.4837 29.08ZM96.2118 29.08L95.8473 30.0113L95.8519 30.013L96.2118 29.08ZM100.084 31.512L99.3909 32.2331L99.3979 32.2398L100.084 31.512ZM102.676 35.192L101.76 35.5943L101.763 35.5994L102.676 35.192ZM102.676 44.44L103.591 44.8423L103.593 44.8372L102.676 44.44ZM100.084 48.12L100.769 48.8482L100.77 48.8478L100.084 48.12ZM96.2118 50.52L95.8519 49.587L95.8474 49.5888L96.2118 50.52ZM94.0998 46.456L93.7283 45.5275L93.7202 45.5308L94.0998 46.456ZM96.3398 44.984L95.6326 44.2769V44.2769L96.3398 44.984ZM97.8118 42.712L96.888 42.329L96.884 42.3387L96.8802 42.3485L97.8118 42.712ZM97.8118 36.888L96.8802 37.2515L96.884 37.2613L96.888 37.271L97.8118 36.888ZM96.3398 34.616L95.6208 35.311L95.6267 35.3171L95.6326 35.3231L96.3398 34.616ZM94.1318 33.144L93.7604 34.0725L94.1318 33.144ZM88.5638 33.144L88.1923 32.2155L88.1842 32.2188L88.5638 33.144ZM86.3558 34.616L87.0629 35.3231L86.3558 34.616ZM84.8517 36.888L83.928 36.505L83.924 36.5147L83.9202 36.5245L84.8517 36.888ZM84.8517 42.712L83.9173 43.068L83.9224 43.0816L83.928 43.095L84.8517 42.712ZM86.3237 44.984L85.6048 45.679L85.6107 45.6851L85.6166 45.6911L86.3237 44.984ZM88.5638 46.456L88.1924 47.3845L88.5638 46.456ZM91.3797 50.384C89.7193 50.384 88.1982 50.1143 86.8072 49.5853L86.0963 51.4547C87.7346 52.0777 89.4989 52.384 91.3797 52.384V50.384ZM86.8116 49.587C85.4331 49.0553 84.2439 48.3123 83.2336 47.3602L81.8619 48.8158C83.0703 49.9544 84.4838 50.8327 86.0919 51.453L86.8116 49.587ZM83.2406 47.3669C82.2488 46.414 81.4703 45.2963 80.9033 44.0057L79.0722 44.8103C79.7425 46.3357 80.6707 47.6713 81.8549 48.8091L83.2406 47.3669ZM80.9083 44.0175C80.3679 42.7435 80.0917 41.3417 80.0917 39.8H78.0917C78.0917 41.5863 78.413 43.2565 79.0672 44.7985L80.9083 44.0175ZM80.0917 39.8C80.0917 38.2583 80.3679 36.8565 80.9083 35.5825L79.0672 34.8014C78.413 36.3435 78.0917 38.0137 78.0917 39.8H80.0917ZM80.9033 35.5943C81.4685 34.308 82.2547 33.1923 83.2656 32.2398L81.8939 30.7842C80.6861 31.9224 79.7444 33.26 79.0722 34.7897L80.9033 35.5943ZM83.2656 32.2398C84.2759 31.2877 85.4651 30.5447 86.8436 30.013L86.1239 28.147C84.5158 28.7673 83.1023 29.6456 81.8939 30.7842L83.2656 32.2398ZM86.8436 30.013C88.2119 29.4852 89.71 29.216 91.3478 29.216V27.216C89.4868 27.216 87.7423 27.5228 86.1239 28.147L86.8436 30.013ZM91.3478 29.216C93.0087 29.216 94.5046 29.4858 95.8474 30.0112L96.5761 28.1488C94.9749 27.5222 93.2282 27.216 91.3478 27.216V29.216ZM95.8519 30.013C97.2289 30.5441 98.4045 31.2853 99.3909 32.2331L100.777 30.7909C99.587 29.648 98.1813 28.7679 96.5716 28.147L95.8519 30.013ZM99.3979 32.2398C100.409 33.1923 101.195 34.308 101.76 35.5943L103.591 34.7897C102.919 33.26 101.977 31.9224 100.77 30.7842L99.3979 32.2398ZM101.763 35.5994C102.318 36.8444 102.604 38.2395 102.604 39.8H104.604C104.604 37.9898 104.271 36.3129 103.589 34.7846L101.763 35.5994ZM102.604 39.8C102.604 41.3368 102.319 42.7473 101.758 44.0428L103.593 44.8372C104.27 43.2741 104.604 41.5912 104.604 39.8H102.604ZM101.76 44.0377C101.195 45.324 100.409 46.4397 99.3979 47.3922L100.77 48.8478C101.977 47.7096 102.919 46.372 103.591 44.8423L101.76 44.0377ZM99.3984 47.3918C98.4112 48.3209 97.2332 49.0542 95.8519 49.587L96.5716 51.453C98.177 50.8338 99.5803 49.9671 100.769 48.8482L99.3984 47.3918ZM95.8474 49.5888C94.5032 50.1147 93.0177 50.384 91.3797 50.384V52.384C93.2405 52.384 94.9763 52.0773 96.5761 51.4512L95.8474 49.5888ZM91.3478 47.968C92.4656 47.968 93.5138 47.7773 94.4793 47.3812L93.7202 45.5308C93.0217 45.8174 92.2352 45.968 91.3478 45.968V47.968ZM94.4711 47.3845C95.4482 46.9936 96.3096 46.4284 97.0469 45.6911L95.6326 44.2769C95.0899 44.8196 94.4579 45.2357 93.7284 45.5275L94.4711 47.3845ZM97.0469 45.6911C97.7883 44.9497 98.3536 44.0741 98.7433 43.0755L96.8802 42.3485C96.5872 43.0992 96.1712 43.7383 95.6326 44.2769L97.0469 45.6911ZM98.7355 43.095C99.1545 42.0845 99.3558 40.9815 99.3558 39.8H97.3558C97.3558 40.7518 97.1943 41.5902 96.888 42.329L98.7355 43.095ZM99.3558 39.8C99.3558 38.6185 99.1545 37.5155 98.7355 36.505L96.888 37.271C97.1943 38.0098 97.3558 38.8482 97.3558 39.8H99.3558ZM98.7433 36.5245C98.3536 35.5259 97.7883 34.6503 97.0469 33.9089L95.6326 35.3231C96.1712 35.8617 96.5872 36.5008 96.8802 37.2515L98.7433 36.5245ZM97.0587 33.921C96.3388 33.1762 95.4831 32.6075 94.5031 32.2155L93.7604 34.0725C94.487 34.3631 95.1034 34.7758 95.6208 35.311L97.0587 33.921ZM94.5031 32.2155C93.5214 31.8228 92.466 31.632 91.3478 31.632V33.632C92.2348 33.632 93.0355 33.7825 93.7604 34.0725L94.5031 32.2155ZM91.3478 31.632C90.2295 31.632 89.1741 31.8228 88.1924 32.2155L88.9351 34.0725C89.66 33.7825 90.4607 33.632 91.3478 33.632V31.632ZM88.1842 32.2188C87.2288 32.6108 86.3817 33.1758 85.6486 33.9089L87.0629 35.3231C87.6098 34.7761 88.2347 34.3599 88.9433 34.0692L88.1842 32.2188ZM85.6486 33.9089C84.9116 34.6459 84.3386 35.5148 83.928 36.505L85.7755 37.271C86.0903 36.5119 86.5199 35.8661 87.0629 35.3231L85.6486 33.9089ZM83.9202 36.5245C83.5279 37.5297 83.3398 38.6257 83.3398 39.8H85.3398C85.3398 38.8409 85.4929 37.9957 85.7833 37.2515L83.9202 36.5245ZM83.3398 39.8C83.3398 40.956 83.5289 42.0485 83.9173 43.068L85.7862 42.356C85.492 41.5835 85.3398 40.7347 85.3398 39.8H83.3398ZM83.928 43.095C84.3356 44.0781 84.8934 44.9432 85.6048 45.679L87.0427 44.289C86.5167 43.7448 86.0932 43.0952 85.7755 42.329L83.928 43.095ZM85.6166 45.6911C86.3539 46.4284 87.2153 46.9936 88.1924 47.3845L88.9351 45.5275C88.2056 45.2357 87.5736 44.8196 87.0309 44.2769L85.6166 45.6911ZM88.1924 47.3845C89.1741 47.7772 90.2295 47.968 91.3478 47.968V45.968C90.4607 45.968 89.66 45.8175 88.9351 45.5275L88.1924 47.3845ZM109.996 48.728L110.699 48.0167L109.996 48.728ZM107.308 28.6V27.6H106.308V28.6H107.308ZM112.492 28.6H113.492V27.6H112.492V28.6ZM113.804 45.56L113.072 46.2417L113.804 45.56ZM121.164 45.56L121.895 46.2417V46.2417L121.164 45.56ZM122.476 28.6V27.6H121.476V28.6H122.476ZM127.596 28.6H128.596V27.6H127.596V28.6ZM124.908 48.728L125.611 49.4393L124.908 48.728ZM117.452 50.384C114.464 50.384 112.258 49.5571 110.699 48.0167L109.293 49.4393C111.318 51.4403 114.082 52.384 117.452 52.384V50.384ZM110.699 48.0167C109.15 46.4861 108.308 44.2468 108.308 41.144H106.308C106.308 44.6118 107.258 47.4286 109.293 49.4393L110.699 48.0167ZM108.308 41.144V28.6H106.308V41.144H108.308ZM107.308 29.6H112.492V27.6H107.308V29.6ZM111.492 28.6V40.952H113.492V28.6H111.492ZM111.492 40.952C111.492 43.1813 111.942 45.0284 113.072 46.2417L114.535 44.8783C113.917 44.2143 113.492 42.9894 113.492 40.952H111.492ZM113.072 46.2417C114.178 47.4287 115.696 47.968 117.484 47.968V45.968C116.114 45.968 115.179 45.5686 114.535 44.8783L113.072 46.2417ZM117.484 47.968C119.271 47.968 120.789 47.4287 121.895 46.2417L120.432 44.8783C119.789 45.5686 118.854 45.968 117.484 45.968V47.968ZM121.895 46.2417C123.026 45.0284 123.476 43.1813 123.476 40.952H121.476C121.476 42.9894 121.051 44.2143 120.432 44.8783L121.895 46.2417ZM123.476 40.952V28.6H121.476V40.952H123.476ZM122.476 29.6H127.596V27.6H122.476V29.6ZM126.596 28.6V41.144H128.596V28.6H126.596ZM126.596 41.144C126.596 44.2468 125.754 46.4861 124.205 48.0167L125.611 49.4393C127.646 47.4286 128.596 44.6118 128.596 41.144H126.596ZM124.205 48.0167C122.646 49.5571 120.44 50.384 117.452 50.384V52.384C120.821 52.384 123.586 51.4403 125.611 49.4393L124.205 48.0167ZM134.926 50.68L134.64 51.6382L134.652 51.6415L134.926 50.68ZM130.959 48.792L130.047 48.381L129.721 49.1038L130.35 49.5859L130.959 48.792ZM132.718 44.888L133.298 44.073L132.307 43.3681L131.807 44.477L132.718 44.888ZM136.111 46.584L135.785 47.5295L135.794 47.5327L135.803 47.5357L136.111 46.584ZM142.575 46.936L142.871 47.8911L142.881 47.888L142.891 47.8847L142.575 46.936ZM143.982 46.072L143.211 45.4363L143.982 46.072ZM143.727 43.416L143.115 44.2073L143.127 44.2162L143.138 44.2247L143.727 43.416ZM141.87 42.552L141.578 43.5084L141.591 43.5121L141.603 43.5155L141.87 42.552ZM139.311 41.912L139.084 42.886L139.097 42.889L139.11 42.8917L139.311 41.912ZM136.526 41.144L136.217 42.0949L136.223 42.0969L136.526 41.144ZM133.998 39.992L133.477 40.8453L133.998 39.992ZM132.11 38.136L131.257 38.6574L131.262 38.666L131.268 38.6744L132.11 38.136ZM132.43 31.704L131.596 31.1531L131.593 31.1572L132.43 31.704ZM135.566 29.176L135.974 30.0893L135.98 30.0864L135.566 29.176ZM145.007 28.728L144.764 29.6981L144.771 29.6999L144.778 29.7016L145.007 28.728ZM148.622 30.2L149.549 30.5766L149.864 29.802L149.157 29.3549L148.622 30.2ZM147.022 34.136L146.526 35.0042L147.519 35.5712L147.949 34.5126L147.022 34.136ZM143.886 32.824L143.612 33.7855L143.621 33.7881L143.63 33.7906L143.886 32.824ZM138.351 32.728L138.006 31.7891H138.006L138.351 32.728ZM136.975 33.656L137.769 34.2634L137.777 34.2526L137.785 34.2415L136.975 33.656ZM137.262 36.344L136.651 37.1353L136.663 37.1442L136.674 37.1527L137.262 36.344ZM139.118 37.176L138.851 38.1395H138.851L139.118 37.176ZM141.646 37.816L141.42 38.79L141.425 38.7911L141.646 37.816ZM144.431 38.552L144.141 39.5092L144.147 39.511L144.431 38.552ZM146.991 39.672L147.512 38.8187L146.991 39.672ZM148.846 41.528L147.993 42.0494L147.998 42.058L148.004 42.0664L148.846 41.528ZM148.527 47.896L149.356 48.4546L148.527 47.896ZM145.358 50.424L144.945 49.5136L144.939 49.516L145.358 50.424ZM140.078 50.384C138.375 50.384 136.75 50.1611 135.201 49.7185L134.652 51.6415C136.388 52.1376 138.198 52.384 140.078 52.384V50.384ZM135.213 49.7218C133.648 49.2543 132.445 48.6711 131.567 47.9981L130.35 49.5859C131.477 50.4489 132.92 51.1244 134.64 51.6382L135.213 49.7218ZM131.87 49.203L133.63 45.299L131.807 44.477L130.047 48.381L131.87 49.203ZM132.139 45.703C133.189 46.4495 134.408 47.0555 135.785 47.5295L136.436 45.6385C135.21 45.2165 134.168 44.6918 133.298 44.073L132.139 45.703ZM135.803 47.5357C137.222 47.9933 138.659 48.224 140.111 48.224V46.224C138.874 46.224 137.644 46.0281 136.418 45.6323L135.803 47.5357ZM140.111 48.224C141.184 48.224 142.117 48.1249 142.871 47.8911L142.278 45.9809C141.794 46.1311 141.085 46.224 140.111 46.224V48.224ZM142.891 47.8847C143.635 47.6365 144.295 47.2656 144.754 46.7077L143.211 45.4363C143.073 45.6038 142.794 45.8088 142.258 45.9873L142.891 47.8847ZM144.754 46.7077C145.2 46.1662 145.431 45.5255 145.431 44.824H143.431C143.431 45.0611 143.362 45.2525 143.211 45.4363L144.754 46.7077ZM145.431 44.824C145.431 43.9178 145.052 43.1432 144.315 42.6073L143.138 44.2247C143.34 44.3715 143.431 44.5355 143.431 44.824H145.431ZM144.338 42.6247C143.738 42.1608 142.99 41.8252 142.138 41.5885L141.603 43.5155C142.287 43.7054 142.777 43.9458 143.115 44.2073L144.338 42.6247ZM142.163 41.5956C141.359 41.3502 140.475 41.1295 139.511 40.9323L139.11 42.8917C140.024 43.0785 140.846 43.2845 141.578 43.5084L142.163 41.5956ZM139.537 40.938C138.647 40.7309 137.744 40.4821 136.83 40.1911L136.223 42.0969C137.186 42.4033 138.14 42.6664 139.084 42.886L139.537 40.938ZM136.836 40.1931C135.988 39.9169 135.217 39.5646 134.52 39.1387L133.477 40.8453C134.316 41.3581 135.231 41.7738 136.217 42.0949L136.836 40.1931ZM134.52 39.1387C133.883 38.7496 133.363 38.2393 132.953 37.5976L131.268 38.6744C131.839 39.5687 132.578 40.2957 133.477 40.8453L134.52 39.1387ZM132.964 37.6145C132.617 37.047 132.407 36.2613 132.407 35.192H130.407C130.407 36.5121 130.665 37.689 131.257 38.6574L132.964 37.6145ZM132.407 35.192C132.407 34.101 132.694 33.1292 133.268 32.2508L131.593 31.1572C130.802 32.3694 130.407 33.723 130.407 35.192H132.407ZM133.265 32.2548C133.846 31.375 134.728 30.6451 135.974 30.0892L135.159 28.2628C133.632 28.9443 132.423 29.8996 131.596 31.1532L133.265 32.2548ZM135.98 30.0864C137.22 29.5229 138.828 29.216 140.846 29.216V27.216C138.641 27.216 136.729 27.5491 135.153 28.2656L135.98 30.0864ZM140.846 29.216C142.173 29.216 143.478 29.3766 144.764 29.6981L145.249 27.7579C143.804 27.3967 142.336 27.216 140.846 27.216V29.216ZM144.778 29.7016C146.049 29.9995 147.148 30.4508 148.088 31.0451L149.157 29.3549C148.006 28.6266 146.694 28.0965 145.235 27.7544L144.778 29.7016ZM147.696 29.8234L146.096 33.7594L147.949 34.5126L149.549 30.5766L147.696 29.8234ZM147.519 33.2678C146.406 32.6322 145.281 32.1594 144.143 31.8574L143.63 33.7906C144.583 34.0433 145.548 34.4451 146.526 35.0042L147.519 33.2678ZM144.161 31.8625C143.034 31.5404 141.918 31.376 140.814 31.376V33.376C141.717 33.376 142.648 33.5102 143.612 33.7855L144.161 31.8625ZM140.814 31.376C139.745 31.376 138.795 31.4998 138.006 31.7891L138.695 33.6669C139.186 33.4869 139.879 33.376 140.814 33.376V31.376ZM138.006 31.7891C137.257 32.0637 136.599 32.4683 136.164 33.0705L137.785 34.2415C137.905 34.0757 138.164 33.8617 138.695 33.6669L138.006 31.7891ZM136.18 33.0485C135.759 33.599 135.559 34.2432 135.559 34.936H137.559C137.559 34.6474 137.635 34.4383 137.769 34.2634L136.18 33.0485ZM135.559 34.936C135.559 35.8323 135.945 36.5898 136.651 37.1353L137.874 35.5527C137.641 35.3728 137.559 35.1917 137.559 34.936H135.559ZM136.674 37.1527C137.269 37.5853 138.008 37.9053 138.851 38.1395L139.386 36.2125C138.693 36.02 138.195 35.7854 137.851 35.5353L136.674 37.1527ZM138.851 38.1395C139.635 38.3572 140.491 38.574 141.42 38.79L141.873 36.842C140.967 36.6313 140.138 36.4214 139.386 36.2125L138.851 38.1395ZM141.425 38.7911C142.341 38.9993 143.246 39.2387 144.141 39.5092L144.72 37.5948C143.78 37.3107 142.829 37.0594 141.868 36.8409L141.425 38.7911ZM144.147 39.511C145.009 39.7658 145.782 40.1052 146.469 40.5253L147.512 38.8187C146.663 38.3001 145.729 37.8929 144.714 37.593L144.147 39.511ZM146.469 40.5253C147.102 40.9119 147.607 41.4168 147.993 42.0494L149.7 41.0065C149.148 40.1032 148.415 39.3708 147.512 38.8187L146.469 40.5253ZM148.004 42.0664C148.366 42.6334 148.583 43.4033 148.583 44.44H150.583C150.583 43.13 150.308 41.9586 149.689 40.9896L148.004 42.0664ZM148.583 44.44C148.583 45.4994 148.29 46.4569 147.697 47.3374L149.356 48.4546C150.171 47.2444 150.583 45.898 150.583 44.44H148.583ZM147.697 47.3374C147.118 48.1978 146.223 48.9328 144.945 49.5136L145.772 51.3344C147.31 50.6352 148.527 49.6848 149.356 48.4546L147.697 47.3374ZM144.939 49.516C143.725 50.0763 142.121 50.384 140.078 50.384V52.384C142.303 52.384 144.218 52.0517 145.778 51.332L144.939 49.516ZM157.893 37.624V36.624H156.893V37.624H157.893ZM168.677 37.624H169.677V36.624H168.677V37.624ZM168.677 41.656V42.656H169.677V41.656H168.677ZM157.893 41.656H156.893V42.656H157.893V41.656ZM158.277 46.84H157.277V47.84H158.277V46.84ZM170.469 46.84H171.469V45.84H170.469V46.84ZM170.469 51V52H171.469V51H170.469ZM153.125 51H152.125V52H153.125V51ZM153.125 28.6V27.6H152.125V28.6H153.125ZM170.053 28.6H171.053V27.6H170.053V28.6ZM170.053 32.76V33.76H171.053V32.76H170.053ZM158.277 32.76V31.76H157.277V32.76H158.277ZM157.893 38.624H168.677V36.624H157.893V38.624ZM167.677 37.624V41.656H169.677V37.624H167.677ZM168.677 40.656H157.893V42.656H168.677V40.656ZM158.893 41.656V37.624H156.893V41.656H158.893ZM158.277 47.84H170.469V45.84H158.277V47.84ZM169.469 46.84V51H171.469V46.84H169.469ZM170.469 50H153.125V52H170.469V50ZM154.125 51V28.6H152.125V51H154.125ZM153.125 29.6H170.053V27.6H153.125V29.6ZM169.053 28.6V32.76H171.053V28.6H169.053ZM170.053 31.76H158.277V33.76H170.053V31.76ZM157.277 32.76V46.84H159.277V32.76H157.277Z" fill="black" mask="url(#path-2-outside-1_1_6)"/>
</svg>
